HIERARCHY
ROOT Hips
{
 OFFSET 0.000000 0.000000 0.000000
 CHANNELS 6 Xposition Yposition Zposition Yrotation Xrotation Zrotation
 JOINT Chest
 {
  OFFSET 0.000000 9.585900 0.002600
  CHANNELS 3 Yrotation Xrotation Zrotation
  JOINT Chest2
  {
   OFFSET 0.000000 9.601200 -0.005300
   CHANNELS 3 Yrotation Xrotation Zrotation
   JOINT Chest3
   {
    OFFSET 0.000000 9.561800 0.000000
    CHANNELS 3 Yrotation Xrotation Zrotation
    JOINT Chest4
    {
     OFFSET 0.000000 9.552100 0.000000
     CHANNELS 3 Yrotation Xrotation Zrotation
     JOINT Neck
     {
      OFFSET 0.000000 14.453000 0.000000
      CHANNELS 3 Yrotation Xrotation Zrotation
      JOINT Head
      {
       OFFSET 0.000000 8.936500 -0.011300
       CHANNELS 3 Yrotation Xrotation Zrotation
       End Site
       {
        OFFSET 0.000000 17.073600 -0.006000
       }
      }
     }
     JOINT RightCollar
     {
      OFFSET -2.921100 9.558500 0.000000
      CHANNELS 3 Yrotation Xrotation Zrotation
      JOINT RightShoulder
      {
       OFFSET -13.519700 0.000000 0.000000
       CHANNELS 3 Yrotation Xrotation Zrotation
       JOINT RightElbow
       {
        OFFSET 0.000000 -29.696600 0.000000
        CHANNELS 3 Yrotation Xrotation Zrotation
        JOINT RightWrist
        {
         OFFSET 0.000000 -24.004700 0.000000
         CHANNELS 3 Yrotation Xrotation Zrotation
         End Site
         {
          OFFSET 0.000000 -17.728500 0.000000
         }
        }
       }
      }
     }
     JOINT LeftCollar
     {
      OFFSET 2.921100 9.558500 0.000000
      CHANNELS 3 Yrotation Xrotation Zrotation
      JOINT LeftShoulder
      {
       OFFSET 13.519700 0.000000 0.000000
       CHANNELS 3 Yrotation Xrotation Zrotation
       JOINT LeftElbow
       {
        OFFSET 0.000000 -29.696600 0.000000
        CHANNELS 3 Yrotation Xrotation Zrotation
        JOINT LeftWrist
        {
         OFFSET 0.000000 -24.004700 0.000000
         CHANNELS 3 Yrotation Xrotation Zrotation
         End Site
         {
          OFFSET 0.000000 -17.728500 0.000000
         }
        }
       }
      }
     }
    }
   }
  }
 }
 JOINT RightHip
 {
  OFFSET -7.771700 -0.012900 -0.001300
  CHANNELS 3 Yrotation Xrotation Zrotation
  JOINT RightKnee
  {
   OFFSET 0.000000 -40.869800 0.001200
   CHANNELS 3 Yrotation Xrotation Zrotation
   JOINT RightAnkle
   {
    OFFSET 0.000000 -39.717900 0.002100
    CHANNELS 3 Yrotation Xrotation Zrotation
    JOINT RightToe
    {
     OFFSET 0.000000 -4.965400 11.033500
     CHANNELS 3 Yrotation Xrotation Zrotation
     End Site
     {
      OFFSET 0.000000 -1.423100 5.872300
     }
    }
   }
  }
 }
 JOINT LeftHip
 {
  OFFSET 7.771700 -0.012900 -0.001300
  CHANNELS 3 Yrotation Xrotation Zrotation
  JOINT LeftKnee
  {
   OFFSET 0.000000 -40.869800 0.001200
   CHANNELS 3 Yrotation Xrotation Zrotation
   JOINT LeftAnkle
   {
    OFFSET 0.000000 -39.717900 0.002100
    CHANNELS 3 Yrotation Xrotation Zrotation
    JOINT LeftToe
    {
     OFFSET 0.000000 -4.965400 11.033500
     CHANNELS 3 Yrotation Xrotation Zrotation
     End Site
     {
      OFFSET 0.000000 -1.423100 5.872300
     }
    }
   }
  }
 }
}
MOTION
Frames: 8
Frame Time: 0.008333
-18.480237 50.770255 9.441578 162.511015 -6.812151 -0.686274 3.525196 6.138641 0.904997 0.133649 0.250047 -0.001010 0.232672 0.442302 -0.001912 3.035677 5.828669 0.104430 1.579494 18.504086 0.345451 2.802258 -1.371208 0.145520 2.484198 6.830665 0.716791 -7.782427 -13.110871 -8.479696 -62.546997 -74.514895 88.593571 -1.602944 3.194401 -31.555637 -4.650261 4.130311 0.006383 18.473278 -6.690764 5.055169 76.448790 -79.782244 -101.868153 0.715036 6.780118 16.195175 -9.155107 -73.513968 6.040994 -114.911301 84.915367 -112.721169 -2.664011 -13.120960 -1.676330 -0.220027 0.715272 -0.102326 -10.016551 -76.248773 31.665324 120.852902 78.813570 115.886174 -16.127060 -19.864901 -0.277580 -0.440136 -1.064796 -0.200950
-18.480743 50.772516 9.441044 162.510466 -6.787169 -0.685209 3.520990 6.117153 0.900330 0.136079 0.249473 0.000018 0.225507 0.443774 -0.005180 3.041841 5.814969 0.101370 1.579937 18.501326 0.346448 2.791384 -1.415408 0.132833 2.470848 6.828681 0.697926 -7.810125 -13.109386 -8.416247 -62.448346 -74.521189 88.520272 -1.605129 3.195826 -31.561175 -4.655772 4.141879 0.015268 18.463086 -6.696852 5.045257 76.415557 -79.786743 -101.821872 0.710943 6.780921 16.186549 -9.178228 -73.536105 6.058905 -114.872689 84.913011 -112.679853 -2.656013 -13.120989 -1.679577 -0.223087 0.714616 -0.104096 -10.035237 -76.270993 31.681013 120.834688 78.810141 115.867052 -16.127158 -19.855808 -0.277429 -0.454493 -1.074179 -0.202950
-18.483444 50.773887 9.441404 162.508526 -6.759155 -0.670478 3.518235 6.090305 0.882311 0.131006 0.250627 -0.002216 0.230688 0.441279 -0.003233 3.042481 5.804170 0.096310 1.579248 18.502109 0.346625 2.769577 -1.491608 0.091003 2.466420 6.831004 0.688621 -7.834294 -13.107273 -8.368356 -62.401513 -74.507416 88.481393 -1.609196 3.203936 -31.572059 -4.663717 4.155649 0.023593 18.417243 -6.706700 5.057430 76.364479 -79.771945 -101.735268 0.697768 6.778217 16.185325 -9.153274 -73.563861 6.026771 -114.814275 84.906160 -112.617238 -2.645529 -13.130153 -1.680961 -0.221625 0.723657 -0.107622 -10.004342 -76.299356 31.648608 120.824465 78.811715 115.857057 -16.151418 -19.835729 -0.271017 -0.442784 -1.092024 -0.204239
-18.485097 50.774447 9.442182 162.522236 -6.736328 -0.661655 3.501258 6.067615 0.870126 0.130774 0.249771 -0.002376 0.232222 0.442051 -0.003494 3.042112 5.798157 0.093792 1.574182 18.486442 0.335319 2.759742 -1.505800 0.077289 2.465406 6.834169 0.686215 -7.862657 -13.120859 -8.310395 -62.298084 -74.514460 88.391260 -1.630677 3.208819 -31.588820 -4.685590 4.161989 0.045789 18.416887 -6.704851 5.047232 76.371815 -79.766803 -101.741925 0.696961 6.782510 16.197551 -9.152780 -73.585498 6.005406 -114.811719 84.905870 -112.611596 -2.639319 -13.141188 -1.678604 -0.221419 0.732067 -0.114794 -9.994918 -76.320916 31.616931 120.786711 78.813340 115.819301 -16.145239 -19.829804 -0.273927 -0.471201 -1.092081 -0.207138
-18.483856 50.774231 9.443640 162.517572 -6.720340 -0.665758 3.502437 6.050105 0.874050 0.130516 0.248977 -0.002518 0.234477 0.440887 -0.004993 3.041977 5.793994 0.092041 1.565972 18.471722 0.323624 2.761014 -1.501450 0.075483 2.459677 6.824666 0.669947 -7.860693 -13.105557 -8.284572 -62.374283 -74.503099 88.456234 -1.616904 3.235935 -31.583991 -4.694025 4.166369 0.058955 18.398907 -6.708028 5.057168 76.366372 -79.760357 -101.727087 0.701774 6.785893 16.203029 -9.176710 -73.599305 6.029797 -114.784507 84.908827 -112.573832 -2.641087 -13.141857 -1.688103 -0.213787 0.734405 -0.113124 -10.034634 -76.332598 31.652045 120.764049 78.811008 115.801274 -16.128259 -19.838227 -0.288890 -0.455988 -1.080645 -0.204232
-18.482686 50.773357 9.443709 162.515245 -6.716612 -0.664737 3.499014 6.043954 0.871493 0.131845 0.249146 -0.001817 0.227800 0.435920 -0.005175 3.046012 5.789205 0.090026 1.560575 18.464099 0.312271 2.747173 -1.528859 0.044009 2.461889 6.822720 0.652138 -7.858142 -13.092185 -8.259205 -62.387709 -74.510445 88.466644 -1.622082 3.236153 -31.590339 -4.699095 4.171940 0.069319 18.380339 -6.712971 5.079323 76.422907 -79.780430 -101.807679 0.684671 6.798239 16.191275 -9.179039 -73.602483 6.029425 -114.808492 84.912826 -112.588853 -2.643692 -13.149428 -1.695268 -0.209776 0.740107 -0.112259 -10.079201 -76.332850 31.692904 120.784674 78.804613 115.812992 -16.113001 -19.838987 -0.292333 -0.451667 -1.082902 -0.205763
-18.480837 50.771749 9.444234 162.511464 -6.715089 -0.666103 3.498375 6.040178 0.870726 0.130378 0.248935 -0.002848 0.227668 0.435285 -0.005378 3.041407 5.773832 0.081857 1.561653 18.460467 0.306900 2.732261 -1.559256 0.009191 2.469057 6.825190 0.645256 -7.840328 -13.091267 -8.247161 -62.473760 -74.525278 88.539253 -1.631455 3.249811 -31.590758 -4.693483 4.186437 0.082090 18.365473 -6.720944 5.104516 76.420743 -79.766476 -101.800297 0.679853 6.798699 16.188450 -9.217578 -73.603022 6.058115 -114.876343 84.922358 -112.651842 -2.633008 -13.156151 -1.704161 -0.218276 0.743689 -0.116958 -10.096063 -76.333546 31.711761 120.796677 78.802517 115.822351 -16.093533 -19.849085 -0.294684 -0.466793 -1.076136 -0.208427
-18.478615 50.769597 9.444414 162.506916 -6.719005 -0.667338 3.501653 6.043300 0.871756 0.124063 0.247748 -0.006072 0.228900 0.435719 -0.004583 3.039857 5.771941 0.081187 1.555939 18.443565 0.288477 2.726184 -1.582063 -0.014749 2.479641 6.813579 0.633939 -7.823372 -13.095919 -8.251592 -62.590814 -74.538724 88.647136 -1.639710 3.262777 -31.591201 -4.689987 4.183846 0.088000 18.351875 -6.729588 5.131957 76.417654 -79.751379 -101.795348 0.674861 6.799505 16.182289 -9.224955 -73.599982 6.066637 -114.914262 84.923440 -112.682729 -2.631882 -13.162466 -1.708658 -0.218086 0.747296 -0.118046 -10.106795 -76.329524 31.726401 120.819776 78.807025 115.850887 -16.100042 -19.862444 -0.298231 -0.446393 -1.069081 -0.206188
